<?xml version="1.0" ?><!DOCTYPE svg  PUBLIC '-//W3C//DTD SVG 1.0//EN'  'http://www.w3.org/TR/2001/REC-SVG-20010904/DTD/svg10.dtd'><svg enable-background="new 0 0 200 200" height="200px" id="Layer_1" version="1.0" viewBox="0 0 200 200" width="200px" xml:space="preserve" xmlns="http://www.w3.org/2000/svg" xmlns:xlink="http://www.w3.org/1999/xlink"><g id="New_Symbol"/><g id="New_Symbol_1_"/><g id="New_Symbol_1"/><g id="New_Symbol_9_2_"/><g id="New_Symbol_7"/><g id="New_Symbol_9_1_"/><g id="New_Symbol_9"/><g id="Nuevo_símbolo"/><g id="New_Symbol_10"/><g id="New_Symbol_12"/><g id="New_Symbol_14"/><g id="New_Symbol_15"/><g id="New_Symbol_16"/><g id="New_Symbol_17_1_"/><g id="New_Symbol_18"/><g id="New_Symbol_19"/><g id="New_Symbol_17"/><g><g><g><g><path d="M59.1,173.2c-0.5,0-0.9-0.3-1.1-0.7L17,80.3c-0.3-0.6,0-1.4,0.6-1.6l113.1-51.7c0.6-0.3,1.4,0,1.7,0.6l12,25.5      c0.2,0.3,0.2,0.7,0,1.1c-0.2,0.3-0.5,0.6-0.8,0.7L40.1,80.7l20.2,90.9c0.1,0.6-0.2,1.3-0.8,1.5      C59.3,173.2,59.2,173.2,59.1,173.2z M19.7,80.4L55.1,160L37.4,80.1c-0.1-0.7,0.3-1.3,0.9-1.5l103.2-25.8l-10.9-23L19.7,80.4z"/></g></g></g><g><g><path d="M59.1,173.2c-0.2,0-0.5-0.1-0.7-0.2c-0.3-0.2-0.5-0.5-0.6-0.8L37.4,80.1c-0.1-0.7,0.3-1.3,0.9-1.5l122.8-30.7     c0.3-0.1,0.7,0,1,0.1s0.5,0.5,0.6,0.8l20.5,92.1c0.1,0.7-0.3,1.3-0.9,1.5L59.4,173.1C59.3,173.2,59.2,173.2,59.1,173.2z      M40.1,80.7L60,170.4l120.4-30.1l-19.9-89.7L40.1,80.7z"/></g></g><g><g><path d="M67.7,159.6c-0.2,0-0.5-0.1-0.7-0.2c-0.3-0.2-0.5-0.5-0.6-0.8L50.9,89.5c-0.1-0.7,0.3-1.3,0.9-1.5l49.9-12.8     c0.7-0.2,1.4,0.2,1.5,0.9l17.7,69.2c0.1,0.3,0,0.7-0.1,1c-0.2,0.3-0.5,0.5-0.8,0.6l-52.1,12.8C67.9,159.6,67.8,159.6,67.7,159.6z      M53.6,90.1l15,66.7l49.6-12.2l-17.1-66.7L53.6,90.1z"/></g></g><g><g><path d="M112.9,85.4c-0.2,0-0.4-0.1-0.6-0.2c-0.3-0.2-0.5-0.4-0.6-0.8l-2.5-9.9c-0.2-0.7,0.2-1.3,0.9-1.5l41.6-10.7     c0.7-0.2,1.4,0.2,1.5,0.9l2.5,9.9c0.1,0.3,0,0.7-0.1,0.9c-0.2,0.3-0.4,0.5-0.8,0.6l-41.6,10.7C113.1,85.4,113,85.4,112.9,85.4z      M111.9,75.2l1.9,7.5l39.2-10l-1.9-7.5L111.9,75.2z"/></g></g><g><g><path d="M118,105.3c-0.6,0-1.1-0.4-1.2-0.9l-2.5-9.9c-0.1-0.3,0-0.7,0.1-0.9c0.2-0.3,0.4-0.5,0.8-0.6l41.6-10.7     c0.3-0.1,0.7,0,0.9,0.1c0.3,0.2,0.5,0.4,0.6,0.8l2.5,9.9c0.2,0.7-0.2,1.3-0.9,1.5l-41.6,10.7C118.2,105.3,118.1,105.3,118,105.3z      M116.9,95l1.9,7.5l39.2-10l-1.9-7.5L116.9,95z"/></g></g><g><g><path d="M123,125.1c-0.6,0-1.1-0.4-1.2-0.9l-2.5-9.9c-0.1-0.3,0-0.7,0.1-0.9c0.2-0.3,0.4-0.5,0.8-0.6l41.6-10.7     c0.7-0.2,1.4,0.2,1.5,0.9l2.5,9.9c0.1,0.3,0,0.7-0.1,0.9c-0.2,0.3-0.4,0.5-0.8,0.6l-41.6,10.7C123.3,125.1,123.1,125.1,123,125.1     z M122,114.8l1.9,7.5l39.2-10l-1.9-7.5L122,114.8z"/></g></g><g><g><path d="M128.1,144.9c-0.2,0-0.4-0.1-0.6-0.2c-0.3-0.2-0.5-0.4-0.6-0.8l-2.5-9.9c-0.2-0.7,0.2-1.3,0.9-1.5l41.6-10.7     c0.7-0.2,1.4,0.2,1.5,0.9l2.5,9.9c0.1,0.3,0,0.7-0.1,0.9c-0.2,0.3-0.4,0.5-0.8,0.6l-41.6,10.7     C128.3,144.9,128.2,144.9,128.1,144.9z M127.1,134.7l1.9,7.5l39.2-10l-1.9-7.5L127.1,134.7z"/></g></g><g><g><polygon points="78.7,130.4 67.7,123.5 74.7,112.7 73.6,112 66,123.9 78,131.5    "/></g><g><polygon points="78.2,132.5 64.9,124.1 73.4,111 75.7,112.5 68.8,123.2 79.7,130.2    "/></g></g><g><g><polygon points="98.4,126.9 106,114.9 94,107.4 93.4,108.5 104.2,115.3 97.3,126.2    "/></g><g><polygon points="98.6,128 96.3,126.5 103.2,115.5 92.3,108.8 93.8,106.4 107.1,114.7    "/></g></g><g><g><rect height="20.6" transform="matrix(0.9791 0.2034 -0.2034 0.9791 26.0812 -14.8983)" width="1.3" x="84.9" y="109.1"/></g><g><rect height="22.1" transform="matrix(0.9791 0.2031 -0.2031 0.9791 26.0497 -14.8843)" width="2.8" x="84.1" y="108.4"/></g></g></g></svg>