<?xml version="1.0" ?><!DOCTYPE svg  PUBLIC '-//W3C//DTD SVG 1.0//EN'  'http://www.w3.org/TR/2001/REC-SVG-20010904/DTD/svg10.dtd'><svg enable-background="new 0 0 200 200" height="200px" id="Layer_1" version="1.0" viewBox="0 0 200 200" width="200px" xml:space="preserve" xmlns="http://www.w3.org/2000/svg" xmlns:xlink="http://www.w3.org/1999/xlink"><g id="New_Symbol"/><g id="New_Symbol_1_"/><g id="New_Symbol_1"/><g id="New_Symbol_9_2_"/><g id="New_Symbol_7"/><g id="New_Symbol_9_1_"/><g id="New_Symbol_9"/><g id="Nuevo_símbolo"/><g id="New_Symbol_10"/><g id="New_Symbol_12"/><g id="New_Symbol_14"/><g id="New_Symbol_15"/><g id="New_Symbol_16"/><g id="New_Symbol_17_1_"/><g id="New_Symbol_18"/><g id="New_Symbol_19"/><g id="New_Symbol_17"/><g><path d="M56,20.5v2.2v2V75c0,0.7,1.1,2,1.8,2H144V24.7v-2V20H57.8C57.1,20,56,19.7,56,20.5z M58,22h84v1H58V22z M58,25h84v50H58V25   z"/><circle cx="100.9" cy="83.1" r="1.5"/><path d="M125,94v-1h-11v-5h34.1c0.9,0,0.9-1.3,0.9-2.2V16.2c0-0.9,0-1.2-0.9-1.2H52.9C52,15,51,15.3,51,16.2v69.6   c0,0.9,1,2.2,1.9,2.2H86v5H75v1H5v11h69v81h10v-81h100v81h10v-81.5v-5.3V94H125z M53,17h94v62H53V17z M53,86v-5h94v5h-32.9H86.9H53   z M112,88v5H88v-5H112z M192,99.2v5.3V184h-6v-79.5V103h-1.5H84.7H82v1.5V184h-6v-79.5V103h-1.8H7v-7h185V99.2z"/><path d="M29.4,124H27v1.7v5.6v2.6h2.4h15.1H46v-2.6v-5.6V124h-1.5H29.4z M44,132H29v-6h15V132z"/><path d="M5,147h62v-35H5V147z M7,114h58v31H7V114z"/><path d="M5,186h62v-35H5V186z M7,153h58v31H7V153z"/><path d="M29.4,164H27v1.2v5.6v2.1h2.4h15.1H46v-2.1v-5.6V164h-1.5H29.4z M44,171H29v-5h15V171z"/><polygon points="86.7,36.2 85.3,34.8 69.7,50.2 85.3,65.8 86.7,64.4 72.5,50.2  "/><polygon points="116.4,36.2 130.6,50.2 116.4,64.4 117.8,65.8 133.4,50.2 117.8,34.8  "/><rect height="32.1" transform="matrix(-0.9111 -0.4121 0.4121 -0.9111 172.0267 137.3056)" width="2" x="99.8" y="34.1"/></g></svg>