<?xml version="1.0" ?><!DOCTYPE svg  PUBLIC '-//W3C//DTD SVG 1.0//EN'  'http://www.w3.org/TR/2001/REC-SVG-20010904/DTD/svg10.dtd'><svg enable-background="new 0 0 200 200" height="200px" id="Layer_1" version="1.0" viewBox="0 0 200 200" width="200px" xml:space="preserve" xmlns="http://www.w3.org/2000/svg" xmlns:xlink="http://www.w3.org/1999/xlink"><g id="New_Symbol"/><g id="New_Symbol_1_"/><g id="New_Symbol_1"/><g id="New_Symbol_9_2_"/><g id="New_Symbol_7"/><g id="New_Symbol_9_1_"/><g id="New_Symbol_9"/><g id="Nuevo_símbolo"/><g id="New_Symbol_10"/><g id="New_Symbol_12"/><g id="New_Symbol_14"/><g id="New_Symbol_15"/><g id="New_Symbol_16"/><g id="New_Symbol_17_1_"/><g id="New_Symbol_18"/><g id="New_Symbol_19"/><g id="New_Symbol_17"/><g><path d="M101.2,20c-30.3,0-55,24.7-55,55c0,9.7,2.6,19.2,7.4,27.5l38,81.8c0.2,0.5,0.5,1.1,0.8,1.6c1.9,3.2,5.3,5.1,9,5.1   c3.5,0,6.7-1.7,8.7-4.6c0.5-0.8,1-1.7,1.3-2.6l39.7-85.6c0,0,0-0.1,0.1-0.1c3.4-7.3,5.1-15,5.1-23.1C156.2,44.7,131.5,20,101.2,20z    M148.8,97.1c0,0,0,0.1-0.1,0.1l-39.7,85.6c0,0,0,0.1-0.1,0.1c-0.2,0.7-0.6,1.4-1,2c-1.5,2.2-4,3.5-6.6,3.5c-2.8,0-5.4-1.5-6.9-3.9   c-0.2-0.4-0.4-0.8-0.6-1.3l-38-81.9c0,0,0-0.1-0.1-0.1c-4.6-8-7.1-17.1-7.1-26.3c0-28.9,23.5-52.5,52.5-52.5S153.7,46,153.7,75   C153.7,82.7,152,90.2,148.8,97.1z"/><path d="M101.2,33.5c-22.6,0-40.9,18.4-40.9,40.9s18.4,40.9,40.9,40.9s40.9-18.4,40.9-40.9S123.8,33.5,101.2,33.5z M101.2,110.4   c-19.8,0-35.9-16.1-35.9-35.9s16.1-35.9,35.9-35.9s35.9,16.1,35.9,35.9S121,110.4,101.2,110.4z"/><path d="M101.2,50.6C87.9,50.6,77,61.4,77,74.7s10.8,24.2,24.2,24.2s24.2-10.8,24.2-24.2S114.5,50.6,101.2,50.6z M101.2,96.4   c-12,0-21.7-9.7-21.7-21.7s9.7-21.7,21.7-21.7s21.7,9.7,21.7,21.7S113.2,96.4,101.2,96.4z"/><circle cx="101.2" cy="74.7" r="7.6"/></g></svg>